<svg width="48" height="48" viewBox="0 0 48 48" fill="none" xmlns="http://www.w3.org/2000/svg">
<g clip-path="url(#clip0)">
<path d="M41.3551 23.1431L38.5547 27.7961L32.9671 24.4296L35.7726 19.7743L41.3551 23.1431ZM21.2765 39.6094V23.1819H27.7965V28.7959L21.2765 39.6094ZM23.1467 16.6619H25.9263L27.7965 23.1819H21.2765L23.1467 16.6619ZM24.5365 0L29.7839 6.99609L26.0383 14.4888H24.5V11C26.1978 10.3998 27.2196 8.787 27.6101 6.86828C27.5 9.5 26.1974 10.3998 24.5 11C22.8022 11.6002 22 9.5 21.4629 9.04174C22.5 9.5 23.5717 10.6715 24.5 11V14.4888H23.0347L19.2891 6.99609L24.5365 0ZM11.1105 18.2571L9.98555 19L5.67188 21.8467L4.66882 16.5828C4.64868 16.4154 4.58972 16.255 4.49707 16.1144L3.30176 14.2994L5.1167 13.1041L6.31201 14.9191C6.40467 15.0593 6.52918 15.1765 6.67493 15.2611L11.1105 18.2571ZM2.59424 9.27246L5.1167 13.1041L3.30176 14.2994L0.475342 10.0148L2.59424 9.27246ZM8.39392 20.0511L11.1105 18.2571L19.103 30.3812V42.2336L5.67188 21.8467L8.39392 20.0511ZM27.3281 46.4073C26.4067 47.9546 24.4061 48.4618 22.8593 47.5404C21.3124 46.6194 20.8052 44.6184 21.7262 43.0715C21.7328 43.0605 21.7394 43.0495 21.746 43.0389L29.9513 29.4305H29.97V29.4012L32.9671 24.4296L35.7587 26.116L38.5547 27.7961L27.3281 46.4073ZM47.0058 17.9824C46.4451 18.9086 45.6779 19.6923 44.7638 20.2731L42.8339 21.4955L36.5314 17.7008L36.7105 15.4189C36.9097 12.9239 38.4291 10.7263 40.6934 9.65954L47.6481 6.38525L47.7858 9.41381C47.4547 9.48838 47.562 9.46677 47.4547 9.48838L44.8279 10.08C42.3787 10.6783 40.4821 12.6167 39.9379 15.0787C40.4565 15.9361 40.1941 15.5 40.4307 15.9151C40.5091 15.9331 41.1143 16.5 41.1941 16.5C40.4938 15.9483 39.8273 15.5749 39.9379 15.0787C38.5734 12.6804 43.1807 10.4832 44.8279 10.08L47.7858 9.41381L48 14.0614C48.0637 15.438 47.7177 16.8025 47.0058 17.9824Z" fill="#6D6253"/>
</g>
<defs>
<clipPath id="clip0">
<rect width="48" height="48" fill="white"/>
</clipPath>
</defs>
</svg>
