<svg width="54" height="59" viewBox="0 0 54 59" fill="none" xmlns="http://www.w3.org/2000/svg">
<path d="M30.5 2.55493C26.91 2.55493 24 6.27256 24 10.8582C24 15.444 26.91 19.1617 30.5 19.1617C34.0899 19.1617 37 15.444 37 10.8582C37 6.27256 34.0899 2.55493 30.5 2.55493Z" fill="#6D6253"/>
<path d="M40.5 19.1616C36.91 19.1616 34 22.8793 34 27.4651C34 32.051 36.91 35.7688 40.5 35.7688C44.0899 35.7688 47 32.051 47 27.4651C47 22.8793 44.0899 19.1616 40.5 19.1616Z" fill="#6D6253"/>
<path d="M47.5 0C43.9101 0 41 3.71766 41 8.30338C41 12.8892 43.9101 16.6069 47.5 16.6069C51.0899 16.6069 54 12.8892 54 8.30338C54 3.71766 51.0899 0 47.5 0Z" fill="#6D6253"/>
<path d="M47.3136 44.5194C44.5021 46.5016 40.6352 48.3345 36.7789 49.1072C33.3479 49.7945 26.8932 48.1368 26.8932 46.179C26.8932 45.4371 32.5542 48.007 35.9786 46.8399C38.6045 45.945 38.2317 42.8071 36.8034 42.3932C35.3835 41.9815 27.0643 38.0882 23.5109 37.9539C21.837 37.8908 17.7043 38.6976 15.7046 39.1137C15.0195 39.2561 14.59 39.2404 14.5471 40.0779C14.3481 43.9701 13.956 51.9295 13.7422 56.087C13.7377 56.1749 13.8332 57.3562 14.5963 56.5248C15.4316 55.615 16.6031 54.6065 17.6867 54.9204C19.3867 55.4132 34.0939 58.8551 36.1225 58.2527C39.0246 57.391 47.2399 51.1715 48.815 49.2384C51.2564 46.2415 49.3585 43.0775 47.3136 44.5194Z" fill="#6D6253"/>
<path d="M10.4886 38.9621L2.78389 38.4771C2.18905 38.4396 1.58151 39.0123 1.43368 39.7491L0.0327393 55.9974C-0.114951 56.7344 0.251174 57.3616 0.846304 57.391L9.385 57.3899C13.5 56.8468 15 57.4856 14.5 55.5694L15 39.7491C15.0454 38.9907 11.0834 38.9995 10.4886 38.9621Z" fill="#6D6253"/>
</svg>
