<svg width="30" height="44" viewBox="0 0 30 44" fill="none" xmlns="http://www.w3.org/2000/svg">
<path d="M0.362146 40.7158C-0.288315 41.6718 -0.0383468 42.9815 0.917856 43.6353C1.87218 44.2887 3.17315 44.0402 3.82075 43.0781C4.14511 42.6018 7.41609 37.7894 10.596 33.0924L8.0582 29.3682C4.38861 34.7873 0.604754 40.3534 0.362146 40.7158Z" fill="#FF5C4E"/>
<path d="M6.29068 3.8013C6.29068 5.90388 7.98572 7.60721 10.0766 7.60721C12.1665 7.60721 13.8605 5.90388 13.8605 3.8013C13.8605 1.70105 12.1665 0 10.0766 0C7.98572 0 6.29068 1.701 6.29068 3.8013Z" fill="#FF5C4E"/>
<path d="M29.0353 25.0112H26.0782V23.4861C26.0782 23.0748 25.7464 22.7413 25.3372 22.7413H23.7629C23.8035 22.3785 23.72 22.0003 23.498 21.6742C23.2164 21.2632 15.5361 10.0351 15.5361 10.0351C14.9599 9.19489 14.1524 8.82227 13.2762 8.82227H7.30282C6.55573 8.82227 5.72125 9.13332 5.21948 9.82171C5.21948 9.82171 1.64084 14.7461 0.844496 15.8362C0.609348 16.158 0.517463 16.54 0.546165 16.9085C0.546165 17.6996 0.544337 21.69 0.540681 22.9052C0.539742 23.7823 1.24499 24.49 2.11197 24.49C2.98177 24.4922 3.69077 23.7838 3.69364 22.909C3.69364 22.5372 3.69364 19.0232 3.69735 17.2812C4.15914 16.6469 5.05216 15.421 5.96005 14.1763V21.7518C5.96005 23.4741 6.18023 24.8842 7.05102 26.1718C9.68828 30.0374 18.0376 42.2933 18.5673 43.078C19.2178 44.0401 20.5168 44.2886 21.474 43.6352C22.4293 42.9814 22.6765 41.6717 22.0288 40.7157C21.8687 40.4793 20.0923 37.8718 17.8228 34.5428H29.0353C29.5681 34.5428 30.0001 34.1087 30.0001 33.5731V25.9809C30 25.4454 29.5681 25.0112 29.0353 25.0112ZM18.7171 23.4861V25.0112H15.8631C15.3303 25.0112 14.8984 25.4454 14.8984 25.981V30.2541C14.5811 29.789 14.2633 29.323 13.947 28.8595V13.2936C15.9968 16.2902 19.1482 20.8996 20.4071 22.7413H19.4581C19.0489 22.7413 18.7171 23.0748 18.7171 23.4861ZM24.5962 25.0112H20.1991V24.231H24.5962V25.0112Z" fill="#FF5C4E"/>
</svg>
