<svg width="38" height="38" viewBox="0 0 38 38" fill="none" xmlns="http://www.w3.org/2000/svg">
<path d="M37.9995 20.7466C37.9995 19.9992 37.8307 19.2853 37.526 18.6321C37.4946 18.4661 37.4587 18.3003 37.4138 18.1321L34.1129 9.95184L34.0906 9.87824C32.9357 6.43948 31.2924 3.25684 27.1256 3.25684H11.1941C6.92454 3.25684 5.41581 6.51834 4.23561 9.85914L0.782928 18.0594C0.283783 18.8591 0 19.774 0 20.7466V23.2921C0 23.6856 0.046519 24.0706 0.134973 24.4414C0.0489808 24.6654 0 24.9068 0 25.1613V32.7321C0 33.8423 0.89999 34.7425 2.01016 34.7425H6.18159C7.29117 34.7425 8.19116 33.8423 8.19116 32.7321V28.9462H30.0466V32.7321C30.0466 33.8423 30.9468 34.7425 32.057 34.7425H35.9896C37.1002 34.7425 38 33.8423 38 32.7321V25.1605C38 24.9069 37.9505 24.6644 37.8652 24.4411C37.9533 24.0698 38 23.6852 38 23.2918V20.7467H37.9995V20.7466ZM6.68532 10.6804C7.99966 6.97224 9.05661 5.84025 11.1941 5.84025H27.1247C29.2464 5.84025 30.4279 7.1028 31.6285 10.6645L34.0372 15.5457C33.2507 15.2545 32.3852 15.0929 31.4759 15.0929H6.52361C5.70486 15.0929 4.92244 15.2245 4.20055 15.4628L6.68532 10.6804ZM8.75449 24.2588H4.35318C3.56074 24.2588 2.91805 23.6155 2.91805 22.8232C2.91805 22.0306 3.56074 21.3877 4.35318 21.3877H8.75449C9.54726 21.3877 10.19 22.0306 10.19 22.8232C10.19 23.6155 9.54684 24.2588 8.75449 24.2588ZM24.3023 23.9713H14.0647C13.5628 23.9713 13.156 23.5643 13.156 23.0626C13.156 22.56 13.5628 22.1532 14.0647 22.1532H24.3023C24.8048 22.1532 25.2114 22.56 25.2114 23.0626C25.2114 23.5643 24.8048 23.9713 24.3023 23.9713ZM33.5354 24.2588H29.1342C28.3411 24.2588 27.6988 23.6155 27.6988 22.8232C27.6988 22.0306 28.3416 21.3877 29.1342 21.3877H33.5354C34.3285 21.3877 34.9713 22.0306 34.9713 22.8232C34.9713 23.6155 34.3285 24.2588 33.5354 24.2588Z" fill="#FF5C4E"/>
</svg>
