<svg width="49" height="45" viewBox="0 0 49 45" fill="none" xmlns="http://www.w3.org/2000/svg">
<path d="M15.9072 9.99052C18.618 9.99052 20.8155 7.79298 20.8155 5.08218C20.8155 2.37137 18.618 0.173828 15.9072 0.173828C13.1964 0.173828 10.9988 2.37137 10.9988 5.08218C10.9988 7.79298 13.1964 9.99052 15.9072 9.99052Z" fill="#FF5C4E"/>
<path d="M32.9822 34.6391L31.1362 33.1563C30.7189 32.8208 30.1082 32.8871 29.7727 33.3048C29.4377 33.7222 29.5039 34.3328 29.9213 34.6678L31.8047 36.1807V40.2949C31.8047 40.3148 30.153 43.5486 30.153 43.5486C29.9057 44.0238 30.0907 44.6091 30.5655 44.8565C30.7086 44.9305 30.8615 44.9661 31.012 44.9661C31.3621 44.9661 31.7 44.7762 31.8734 44.4441L33.5421 41.2381L35.4095 44.4811C35.5892 44.7927 35.915 44.967 36.251 44.967C36.4151 44.967 36.5816 44.9252 36.734 44.837C37.1981 44.5697 37.3578 43.9766 37.0905 43.513L35.4607 40.683H41.4958V43.9966C41.4958 44.5327 41.9301 44.9666 42.4658 44.9666C43.0014 44.9666 43.4348 44.5317 43.4348 43.9966V40.3294C43.4362 40.3182 43.4421 40.3075 43.4421 40.2963V37.2296L38.9257 34.6405H32.9822V34.6391Z" fill="#FF5C4E"/>
<path d="M45.9518 32.6667C45.3524 32.1019 45.1508 31.4411 44.4783 30.9624C44.361 30.8797 44.2421 30.7945 44.1175 30.7238C44.0425 30.682 44.0186 30.6323 44.0269 30.5515C44.0556 30.2734 44.0834 29.9944 44.1058 29.7169C44.1457 29.2187 44.0011 28.7639 43.6013 28.4698C43.4406 28.351 42.6474 27.9668 42.3022 29.282C42.2272 29.5674 42.1249 29.8517 41.9881 30.1132C41.49 31.071 40.8565 31.947 40.2512 32.8391C39.9746 33.2457 39.6975 33.6523 39.4224 34.0579L43.6627 36.4726C43.6627 36.4726 44.4803 35.5791 44.5952 35.6298C44.7539 35.7004 44.9136 35.7685 45.0734 35.8382C45.5398 36.0417 46.0268 36.1357 46.5371 36.106C47.4038 36.0553 48.3071 35.5947 48.3899 34.5551C48.4654 33.6017 46.1539 32.8571 45.9518 32.6667Z" fill="#FF5C4E"/>
<path d="M30.1512 25.171L38.1555 33.839L38.9093 33.1432L30.9015 24.4713C28.4542 21.8696 26.3019 19.7709 24.7549 20.4253C24.6872 20.4541 24.6229 20.4877 24.5606 20.5261C20.9052 20.0236 20.1314 18.3232 18.9608 15.7507C18.3258 14.3547 17.6057 12.7721 16.3177 11.376C16.3085 11.3658 16.2968 11.359 16.287 11.3488C15.8371 10.8516 15.2878 10.4499 14.7274 10.1782C14.7274 10.1782 14.2541 9.91912 13.7136 9.8154C13.1969 9.71607 12.3024 9.74236 11.7356 9.81151C5.74918 10.687 3.09293 15.1099 0.532113 19.4008L0.27014 19.84C-0.269876 20.7428 0.0242357 21.9129 0.927508 22.4534C1.23379 22.6365 1.57075 22.7237 1.90382 22.7237C2.55194 22.7237 3.18398 22.393 3.54091 21.7961L3.80483 21.3539C5.1259 19.1398 6.3004 17.1823 7.80066 15.7673L6.19181 23.2764C5.96684 24.3262 6.26095 25.2947 6.84382 26.0811L6.35104 33.599L3.21807 41.6987C2.73503 42.9482 3.35587 44.353 4.60536 44.8356C4.89265 44.9471 5.18871 44.9997 5.47942 44.9997C6.45232 44.9997 7.36971 44.41 7.74174 43.4483L11.0081 35.0018C11.0967 34.7725 11.1503 34.531 11.1664 34.2856L11.4532 29.9089L14.3349 34.4638L16.6941 43.1474C16.9834 44.2328 17.9641 44.9486 19.0358 44.9476C19.2423 44.9476 19.4526 44.9208 19.6625 44.8658C20.9568 44.5205 21.7261 43.1917 21.3809 41.8974L18.9262 32.8549C18.8629 32.6183 18.7641 32.3914 18.6321 32.1834L14.7084 25.9828C14.834 25.7325 14.9348 25.4617 14.9991 25.1618L16.3124 19.0337C17.4781 21.2371 19.2793 23.4395 23.4085 24.1918C23.4075 24.5039 23.4153 24.8355 23.4314 25.1876L24.4564 25.1399C24.4423 24.8375 24.4369 24.5653 24.436 24.3096C25.3212 24.2517 26.075 23.586 26.1997 22.6725C26.2586 22.2431 26.1631 21.8311 25.9645 21.4805C27.2169 22.0488 29.1247 24.0798 30.1512 25.171Z" fill="#FF5C4E"/>
</svg>
