<svg width="45" height="38" viewBox="0 0 45 38" fill="none" xmlns="http://www.w3.org/2000/svg">
<path d="M29.0625 7.41468C31.1251 7.41468 32.8126 5.74639 32.8126 3.70734C32.8126 1.66829 31.1251 0 29.0625 0C27 0 25.3125 1.66829 25.3125 3.70734C25.3125 5.74639 27 7.41468 29.0625 7.41468Z" fill="#FF5C4E"/>
<path d="M9.37503 19.4629C4.21875 19.4629 0 23.6336 0 28.7312C0 33.8288 4.21875 37.9995 9.37503 37.9995C14.5313 37.9995 18.7501 33.8288 18.7501 28.7312C18.7501 23.6336 14.5312 19.4629 9.37503 19.4629ZM9.37503 35.219C5.71878 35.219 2.8125 32.3458 2.8125 28.7312C2.8125 25.1166 5.71878 22.2434 9.37503 22.2434C13.0313 22.2434 15.9376 25.1166 15.9376 28.7312C15.9376 32.3458 13.0313 35.219 9.37503 35.219Z" fill="#FF5C4E"/>
<path d="M35.5313 17.5175V13.8102C32.7188 13.8102 30.375 12.7907 28.6875 11.1224L25.0312 7.60047C24.4687 6.95167 23.5312 6.48828 22.5 6.48828C21.4688 6.48828 20.5312 6.85904 19.875 7.60047L14.7187 12.6981C14.0624 13.3469 13.5937 14.2736 13.5937 15.2932C13.5937 16.3128 14.0624 17.2395 14.7187 17.981L20.6249 23.1712V32.4395H24.375V20.8541L20.25 16.7761L24.6562 12.3273L26.0624 13.7175C28.4062 16.1273 31.6874 17.5175 35.5313 17.5175Z" fill="#FF5C4E"/>
<path d="M35.6249 19.4629C30.4687 19.4629 26.2499 23.6336 26.2499 28.7312C26.2499 33.8288 30.4687 37.9995 35.6249 37.9995C40.7812 37.9995 45 33.8288 45 28.7312C45 23.6336 40.7812 19.4629 35.6249 19.4629ZM35.6249 35.219C31.9687 35.219 29.0624 32.3458 29.0624 28.7312C29.0624 25.1166 31.9687 22.2434 35.6249 22.2434C39.2812 22.2434 42.1875 25.1166 42.1875 28.7312C42.1875 32.3458 39.2812 35.219 35.6249 35.219Z" fill="#FF5C4E"/>
</svg>
