<svg width="23" height="23" viewBox="0 0 23 23" fill="none" xmlns="http://www.w3.org/2000/svg">
<g clip-path="url(#clip0)">
<path d="M20.112 12.5381C20.0548 17.0583 16.3313 20.6887 11.8111 20.6315C7.29095 20.5743 3.66052 16.8507 3.71774 12.3306C3.76905 8.2768 6.77201 4.94782 10.6509 4.34334L10.6179 6.95232L14.0766 3.58008L10.7043 0.121331L10.6684 2.96277C6.0332 3.57062 2.41243 7.50501 2.35157 12.3133C2.28483 17.5866 6.52055 21.9309 11.7938 21.9977C17.0671 22.0644 21.4115 17.8287 21.4782 12.5554L20.112 12.5381Z" fill="#6D6253"/>
</g>
<defs>
<clipPath id="clip0">
<path d="M1.14096 0L23 0.276676L22.7233 22.1357L0.864284 21.8591L1.14096 0Z" fill="white"/>
</clipPath>
</defs>
</svg>
