<svg width="45" height="45" viewBox="0 0 45 45" fill="none" xmlns="http://www.w3.org/2000/svg">
<path d="M44.8823 17.2601C44.586 16.3489 43.7778 15.7038 42.8254 15.6176L29.8352 14.4383L24.7015 2.41903C24.3224 1.53599 23.46 0.966064 22.5 0.966064C21.5401 0.966064 20.6773 1.53599 20.3007 2.41903L15.1669 14.4383L2.17464 15.6176C1.22225 15.7055 0.415768 16.3506 0.117758 17.2601C-0.178534 18.1713 0.0950986 19.1707 0.815402 19.8024L10.6349 28.4128L7.73965 41.1647C7.52782 42.1023 7.89175 43.0719 8.66973 43.6342C9.0879 43.9381 9.57921 44.0898 10.0722 44.0898C10.4959 44.0898 10.9199 43.9772 11.2986 43.7506L22.5 37.053L33.6994 43.7506C34.521 44.2416 35.5541 44.1966 36.3303 43.6342C37.1083 43.0719 37.4722 42.1023 37.2604 41.1647L34.3651 28.4128L44.1847 19.8024C44.9046 19.1707 45.1786 18.1733 44.8823 17.2601Z" fill="#6D6253"/>
</svg>
